<svg xmlns="http://www.w3.org/2000/svg" height="48" viewBox="0 -960 960 960" width="48"><path d="M227-38q-58.917 0-97.958-39.75Q90-117.5 90-175.471V-321h139v-573l64.8 64 63.8-64 63.8 64 64.8-64 62.8 64 65-64 63 64 64-64 64 64 66-64v719q0 57.5-40.042 97.25Q790.917-38 734-38H227Zm505.5-92q18.5 0 31-12.885T776-174.6V-775H323v504h370v96q0 19 10 32t29.5 13ZM377-617v-57h219v57H377Zm0 132v-57h219v57H377Zm312.421-132Q678-617 669.5-625.763t-8.5-19.5Q661-656 669.281-665q8.28-9 20-9 11.719 0 20.219 8.781 8.5 8.78 8.5 19.815 0 11.036-8.579 19.72t-20 8.684Zm0 127Q678-490 669.5-498.884t-8.5-19.8q0-10.916 8.281-19.616 8.28-8.7 20-8.7 11.719 0 20.219 8.7 8.5 8.7 8.5 19.616t-8.579 19.8q-8.579 8.884-20 8.884Z"/></svg>